<svg data-v-423bf9ae="" xmlns="http://www.w3.org/2000/svg" viewBox="0 0 286 90" class="iconLeft"><!----><!----><!----><g data-v-423bf9ae="" id="3af48b97-9a54-4b0d-b16e-983198724394" fill="#111827" transform="matrix(7.989347293126968,0,0,7.989347293126968,91.1513859298495,-4.893473643985608)"><path d="M0.36 5.57L0.36 8.59L1.87 8.59L1.87 4.62L1.09 4.62L0.08 4.90L0.08 5.39L0.36 5.57ZM0.28 3.42L1.04 4.19L1.22 4.19L2.02 3.42L2.02 3.26L1.22 2.49L1.04 2.49L0.28 3.26L0.28 3.42ZM4.00 8.59L4.00 6.77Q4.04 6.77 4.12 6.77Q4.20 6.78 4.27 6.78Q4.35 6.79 4.45 6.79Q4.55 6.79 4.64 6.79L4.64 6.79Q4.65 6.79 4.66 6.79L4.66 6.79Q4.75 7.07 4.80 7.50Q4.85 7.92 4.88 8.22Q4.90 8.52 4.96 8.59L4.96 8.59L6.68 8.59Q6.58 8.46 6.50 8.21Q6.42 7.96 6.35 7.70Q6.29 7.44 6.21 7.18Q6.12 6.93 5.97 6.74Q5.82 6.56 5.61 6.51L5.61 6.51Q6.00 6.26 6.23 5.84Q6.47 5.42 6.47 4.88L6.47 4.88Q6.47 3.96 5.97 3.52Q5.47 3.08 4.47 3.08L4.47 3.08Q4.18 3.08 3.73 3.10Q3.29 3.12 3.07 3.12L3.07 3.12L2.45 3.12L2.45 8.59L4.00 8.59ZM4.15 5.90L4.00 5.90L4.00 3.98L4.09 3.98Q4.48 3.98 4.70 4.14Q4.91 4.30 4.91 4.70L4.91 4.70L4.91 5.07Q4.91 5.26 4.88 5.40Q4.85 5.54 4.80 5.63Q4.74 5.72 4.68 5.77Q4.62 5.83 4.52 5.85Q4.42 5.88 4.34 5.89Q4.27 5.90 4.15 5.90L4.15 5.90ZM9.12 6.17L9.12 6.17L8.41 6.17L8.41 5.78Q8.41 5.61 8.43 5.50Q8.44 5.39 8.48 5.29Q8.52 5.18 8.61 5.14Q8.70 5.09 8.84 5.09L8.84 5.09Q9.00 5.09 9.06 5.33Q9.12 5.58 9.12 6.17ZM8.75 8.68L8.75 8.68Q9.03 8.68 9.34 8.62Q9.65 8.55 9.98 8.37Q10.31 8.18 10.49 7.90L10.49 7.90L10.21 7.42Q10.08 7.55 9.89 7.63Q9.69 7.72 9.50 7.77Q9.31 7.81 9.15 7.81L9.15 7.81Q8.98 7.81 8.87 7.78Q8.75 7.75 8.64 7.67Q8.53 7.58 8.47 7.41Q8.41 7.23 8.41 6.95L8.41 6.95L8.41 6.86L10.54 6.86L10.54 6.35Q10.54 5.39 10.15 4.96Q9.75 4.53 8.83 4.53L8.83 4.53Q7.87 4.53 7.34 5.06Q6.81 5.60 6.81 6.65L6.81 6.65Q6.81 7.08 6.91 7.44Q7.01 7.80 7.24 8.08Q7.46 8.37 7.84 8.53Q8.23 8.68 8.75 8.68ZM13.44 8.59L13.44 8.59Q13.82 8.59 14.12 8.43Q14.42 8.26 14.62 7.98Q14.81 7.70 14.91 7.32Q15.00 6.95 15.00 6.51L15.00 6.51Q15.00 5.58 14.64 5.05Q14.28 4.53 13.51 4.53L13.51 4.53Q13.19 4.53 12.95 4.64Q12.72 4.76 12.55 4.93L12.55 4.93L12.55 4.62L11.77 4.62L10.77 4.90L10.77 5.39L11.05 5.57L11.05 10.00L12.55 10.00L12.55 8.39Q12.72 8.47 12.94 8.53Q13.16 8.59 13.44 8.59ZM12.75 7.94L12.75 7.94Q12.70 7.94 12.65 7.93Q12.60 7.93 12.55 7.91L12.55 7.91L12.55 5.45Q12.71 5.36 12.87 5.36L12.87 5.36Q13.09 5.36 13.23 5.56Q13.37 5.77 13.37 6.19L13.37 6.19L13.37 6.98Q13.37 7.94 12.75 7.94ZM17.52 8.22L17.57 8.17L17.71 8.59L18.99 8.59L18.86 8.22L18.86 6.32Q18.86 5.81 18.78 5.48Q18.70 5.14 18.52 4.93Q18.33 4.71 18.02 4.62Q17.72 4.53 17.25 4.53L17.25 4.53Q16.73 4.53 16.22 4.68Q15.71 4.84 15.39 5.04L15.39 5.04L15.69 5.68Q15.87 5.59 16.18 5.52Q16.49 5.45 16.78 5.45L16.78 5.45Q17.12 5.45 17.27 5.57Q17.42 5.68 17.42 5.97L17.42 5.97L17.42 6.05Q17.26 6.05 17.09 6.07Q16.92 6.08 16.70 6.12Q16.48 6.16 16.28 6.23Q16.08 6.29 15.89 6.40Q15.69 6.51 15.55 6.65Q15.41 6.79 15.32 6.99Q15.23 7.20 15.23 7.44L15.23 7.44Q15.23 8.68 16.49 8.68L16.49 8.68Q16.68 8.68 16.86 8.63Q17.03 8.58 17.16 8.50Q17.28 8.43 17.38 8.35Q17.47 8.28 17.52 8.22L17.52 8.22ZM17.20 7.86L17.20 7.86Q16.80 7.86 16.80 7.28L16.80 7.28Q16.80 6.95 16.97 6.80Q17.14 6.64 17.42 6.64L17.42 6.64L17.42 7.76Q17.42 7.76 17.39 7.79Q17.36 7.81 17.31 7.84Q17.26 7.86 17.20 7.86ZM19.46 5.57L19.46 8.59L20.96 8.59L20.96 4.62L20.18 4.62L19.18 4.90L19.18 5.39L19.46 5.57ZM19.37 3.42L20.13 4.19L20.31 4.19L21.11 3.42L21.11 3.26L20.31 2.49L20.13 2.49L19.37 3.26L19.37 3.42ZM21.61 8.59L23.11 8.59L23.11 6.45Q23.25 6.20 23.73 6.20L23.73 6.20Q24.06 6.20 24.15 6.29L24.15 6.29L24.31 4.63Q24.19 4.59 24.07 4.59L24.07 4.59Q23.03 4.59 22.84 5.73L22.84 5.73L22.71 4.62L22.33 4.62L21.33 4.87L21.33 5.39L21.61 5.57L21.61 8.59Z"></path></g><!----><g data-v-423bf9ae="" id="40a2e49c-ed92-425f-a83c-7d68eb7a8ba4" transform="matrix(1.0185025616939125,0,0,1.0185025616939125,-16.205414693055005,-6.116953265023497)" stroke="none" fill="#FF8551"><path d="M67.704 26.364l13.269 20.059c3.608 5.455-7.792 13.704-7.792 13.704 4.42 1.009 8.379 3.713 11.022 7.708 2.609 3.945 3.586 8.646 2.76 13.234a1.989 1.989 0 01-.859 1.312 3.08 3.08 0 01-.278.16 2.022 2.022 0 01-1.86-.112l-9.534-5.73-7.089 4.689 1.544 11.017c.092.646-.144 1.306-.625 1.756s-1.158.623-1.799.471c-4.545-1.034-8.49-3.771-11.1-7.717-2.124-3.211-3.132-6.873-3.044-10.492l1.067-.706 3.353-2.218c-.956 3.738-.296 7.798 1.96 11.209 1.462 2.21 3.456 3.937 5.773 5.029l-1.269-9.04c-.111-.767.23-1.52.881-1.949l9.199-6.086a1.986 1.986 0 012.13-.043l7.824 4.704c-.1-2.56-.908-5.07-2.37-7.28-2.952-4.462-7.978-6.856-13.136-6.262a1.995 1.995 0 01-1.891-.884L49.239 37.8l-1.147-1.734-4.329 1.341-.516.162-4.512 1.39-.208.066a4.36 4.36 0 01-4.403-1.128c-.398-.42-.74-.901-.957-1.465a3.095 3.095 0 01-.102-.28 4.866 4.866 0 01-.155-.796c-.011-.089-.008-.175-.013-.255a4.568 4.568 0 01-.003-.549c.011-.091.023-.183.029-.283l.102-.499.076-.266c.064-.175.129-.349.213-.513l.084-.199c.125-.227.271-.443.426-.642a.888.888 0 00.103-.116c.139-.152.279-.304.437-.445.07-.058.145-.107.214-.166.086-.069.159-.141.25-.202.058-.039.136-.066.203-.11.064-.03.122-.069.194-.104.22-.121.464-.223.72-.308l11.415-3.534 4.259-1.319s.194-.068.55-.184c2.491-.801 12.622-3.702 15.535.702z"></path><path d="M48.649 14.09a18.226 18.226 0 013.044 9.641l-.108.036-3.912 1.209a14.203 14.203 0 00-2.36-8.678c-1.462-2.21-3.456-3.937-5.773-5.03l1.269 9.041a1.984 1.984 0 01-.873 1.944l-9.208 6.091a1.984 1.984 0 01-2.13.042l-7.824-4.704c.099 2.561.908 5.07 2.371 7.281 1.953 2.952 4.83 4.982 8.044 5.853.219.059.435.132.662.186l-.484.32-3.753 2.483c-3.104-1.376-5.825-3.64-7.806-6.634-2.609-3.945-3.586-8.647-2.759-13.234.11-.648.54-1.196 1.137-1.471a2.022 2.022 0 011.86.112l9.535 5.731 7.089-4.69L35.125 8.6a2.026 2.026 0 01.625-1.756 1.994 1.994 0 011.799-.471c4.545 1.034 8.491 3.772 11.1 7.717zM39.44 40.697l4.346-1.388a4.499 4.499 0 01-2.031 3.981l-.117.077-.3.199-3.277 2.168-12.185 8.061c-2.068 1.368-4.821.851-6.15-1.159-1.324-2.001-.724-4.737 1.345-6.105l8.682-5.743 2.436-1.611c1.533 1.756 4.06 2.53 6.498 1.757l.753-.237zM42.792 45.11c2.06-1.363 4.798-.849 6.123 1.153 1.319 1.993.721 4.715-1.339 6.077L31.788 62.785c-2.052 1.357-4.79.843-6.109-1.15-1.324-2.002-.727-4.723 1.325-6.08L42.792 45.11zM48.536 53.792c2.06-1.362 4.792-.856 6.1 1.12 1.319 1.993.71 4.698-1.35 6.062l-.417.275-15.371 10.169c-2.052 1.356-4.779.859-6.098-1.135-1.308-1.977-.705-4.689 1.347-6.047l15.789-10.444zM54.284 62.482c2.061-1.362 4.782-.873 6.079 1.087 1.302 1.969.693 4.673-1.367 6.036l-1.359.899-5.354 3.542-9.074 6.003c-2.052 1.357-4.779.859-6.082-1.109-1.296-1.96-.682-4.656 1.37-6.014l12.11-8.011 3.261-2.157.416-.276z"></path></g><!----></svg>